<!-- created by svgstack.com | Attribution is required. --><svg width="100" height="100" viewBox="0 0 100 100" fill="none" xmlns="http://www.w3.org/2000/svg"><path d="M87.5 20.8333C87.5 16.2291 83.7708 12.4999 79.1667 12.4999C78.4417 12.4999 73.4458 12.4999 66.6667 12.4999C66.6667 10.1999 64.8 8.33325 62.5 8.33325H37.5C35.2 8.33325 33.3333 10.1999 33.3333 12.4999C26.5542 12.4999 21.5583 12.4999 20.8333 12.4999C16.2292 12.4999 12.5 16.2291 12.5 20.8333C12.5 23.9083 14.1875 26.5666 16.6667 28.0124V79.1666C16.6667 86.0708 22.2625 91.6666 29.1667 91.6666H70.8333C77.7375 91.6666 83.3333 86.0708 83.3333 79.1666V28.0124C85.8125 26.5666 87.5 23.9083 87.5 20.8333Z" fill="url(#paint0_linear_2019_546)"/><path d="M62.5 10.4166C63.65 10.4166 64.5833 11.3499 64.5833 12.4999V14.5833H66.6667H79.1667C82.6125 14.5833 85.4167 17.3874 85.4167 20.8333C85.4167 23.0583 84.2458 25.0708 82.2875 26.2083L81.25 26.8124V28.0124V79.1666C81.25 84.9124 76.575 89.5833 70.8333 89.5833H29.1667C23.4208 89.5833 18.75 84.9124 18.75 79.1666V28.0124V26.8124L17.7167 26.2083C15.7542 25.0708 14.5833 23.0583 14.5833 20.8333C14.5833 17.3874 17.3875 14.5833 20.8333 14.5833H33.3333H35.4167V12.4999C35.4167 11.3499 36.35 10.4166 37.5 10.4166H62.5ZM62.5 8.33325H37.5C35.2 8.33325 33.3333 10.1999 33.3333 12.4999C26.5542 12.4999 21.5583 12.4999 20.8333 12.4999C16.2292 12.4999 12.5 16.2291 12.5 20.8333C12.5 23.9083 14.1875 26.5666 16.6667 28.0124V79.1666C16.6667 86.0708 22.2625 91.6666 29.1667 91.6666H70.8333C77.7375 91.6666 83.3333 86.0708 83.3333 79.1666V28.0124C85.8125 26.5666 87.5 23.9083 87.5 20.8333C87.5 16.2291 83.7708 12.4999 79.1667 12.4999C78.4417 12.4999 73.4458 12.4999 66.6667 12.4999C66.6667 10.1999 64.8 8.33325 62.5 8.33325Z" fill="url(#paint1_linear_2019_546)"/><path d="M79.1667 12.4999C78.4417 12.4999 73.4458 12.4999 66.6667 12.4999C66.6667 10.1999 64.8 8.33325 62.5 8.33325H37.5C35.2 8.33325 33.3333 10.1999 33.3333 12.4999C26.5542 12.4999 21.5583 12.4999 20.8333 12.4999C16.2292 12.4999 12.5 16.2291 12.5 20.8333C12.5 25.4374 16.2292 29.1666 20.8333 29.1666C23.3375 29.1666 76.6625 29.1666 79.1667 29.1666C83.7708 29.1666 87.5 25.4374 87.5 20.8333C87.5 16.2291 83.7708 12.4999 79.1667 12.4999Z" fill="url(#paint2_linear_2019_546)"/><defs><linearGradient id="paint0_linear_2019_546" x1="15.5508" y1="14.3303" x2="84.4492" y2="83.2287" gradientUnits="userSpaceOnUse"><stop stop-color="white" stop-opacity="0.6"/><stop offset="1" stop-color="white" stop-opacity="0.3"/></linearGradient><linearGradient id="paint1_linear_2019_546" x1="15.5508" y1="14.3303" x2="84.4492" y2="83.2287" gradientUnits="userSpaceOnUse"><stop stop-color="white" stop-opacity="0.6"/><stop offset="0.4927" stop-color="white" stop-opacity="0"/><stop offset="0.9971" stop-color="white" stop-opacity="0.3"/></linearGradient><linearGradient id="paint2_linear_2019_546" x1="29.5242" y1="0.357418" x2="70.4758" y2="41.3091" gradientUnits="userSpaceOnUse"><stop stop-color="white" stop-opacity="0.7"/><stop offset="0.5188" stop-color="white" stop-opacity="0.45"/><stop offset="0.9998" stop-color="white" stop-opacity="0.55"/></linearGradient></defs></svg> 